<svg width="43" height="43" viewBox="0 0 43 43" fill="none" xmlns="http://www.w3.org/2000/svg">
<path d="M1.11616 37.5338L16.9813 21.6685L17.1337 21.516L16.9813 21.3635L1.11604 5.49735L1.11595 5.49726C0.295118 4.67733 0.29503 3.34148 1.11604 2.52038L2.50694 1.13046L2.50724 1.13016C2.9027 0.733433 3.43056 0.515991 3.99491 0.515991C4.55997 0.515991 5.08783 0.733457 5.48326 1.13016L5.48351 1.13041L21.349 16.9956L21.5015 17.148L21.654 16.9956L37.5188 1.1304L37.5189 1.13028C37.9152 0.733392 38.4428 0.515991 39.0071 0.515991C39.5724 0.515991 40.1 0.733428 40.4962 1.13028L40.4963 1.13042L41.8866 2.52039L41.8868 2.52056C42.2829 2.91576 42.5002 3.7447 42.5003 4.30952C42.4997 4.87416 42.2824 5.1013 41.8866 5.49741L26.0217 21.3635L25.8694 21.516L26.0217 21.6685L41.8862 37.5341C42.282 37.9307 42.5003 38.4585 42.5003 39.0229C42.5003 39.5874 42.282 40.1155 41.8862 40.5116V40.5117L40.496 41.9016V41.9016C40.0996 42.2983 39.572 42.516 39.0074 42.516H39.0067C38.4425 42.516 37.9149 42.2983 37.5185 41.9016V41.9016L21.6536 26.0361L21.5012 25.8837L21.3487 26.0361L5.48317 41.9016L5.48298 41.9017C5.08747 42.2982 4.55956 42.516 3.99456 42.516C3.43062 42.516 2.90236 42.2982 2.50683 41.9017L2.50661 41.9016L1.1161 40.5117L1.11616 37.5338ZM1.11604 37.534C0.719954 37.9307 0.502001 38.4585 0.502001 39.0229C0.502001 39.5874 0.719971 40.1152 1.116 40.5116" fill="#F2323D"/>
</svg>
