<svg width="26" height="26" viewBox="0 0 26 26" fill="none" xmlns="http://www.w3.org/2000/svg">
<path d="M13 1.625C10.7503 1.625 8.55099 2.29214 6.68039 3.54204C4.80978 4.79194 3.35182 6.56847 2.49087 8.64695C1.62993 10.7255 1.40467 13.0126 1.84357 15.2192C2.28248 17.4257 3.36585 19.4525 4.95666 21.0433C6.54749 22.6341 8.57431 23.7175 10.7808 24.1564C12.9874 24.5954 15.2745 24.37 17.353 23.5091C19.4315 22.6482 21.208 21.1902 22.458 19.3196C23.7079 17.449 24.375 15.2497 24.375 13C24.375 9.98319 23.1766 7.08988 21.0433 4.95666C18.9101 2.82344 16.0168 1.625 13 1.625ZM13 22.75C11.0716 22.75 9.18661 22.1782 7.58319 21.1068C5.97981 20.0355 4.73013 18.5127 3.99218 16.7312C3.25422 14.9496 3.06114 12.9892 3.43735 11.0979C3.81356 9.20652 4.74215 7.46927 6.10571 6.10571C7.46927 4.74215 9.2066 3.81355 11.0979 3.43735C12.9892 3.06113 14.9496 3.25422 16.7312 3.99218C18.5127 4.73013 20.0355 5.97981 21.1068 7.58319C22.1782 9.18653 22.75 11.0716 22.75 13C22.75 15.5859 21.7228 18.0658 19.8943 19.8943C18.0659 21.7228 15.5859 22.75 13 22.75Z" fill="#F2323D"/>
<path d="M13 8.125C12.0358 8.125 11.0933 8.41092 10.2916 8.9466C9.48992 9.48228 8.8651 10.2436 8.49607 11.1344C8.12711 12.0252 8.03057 13.0054 8.21868 13.951C8.40677 14.8967 8.87104 15.7653 9.55289 16.4471C10.2347 17.129 11.1033 17.5932 12.049 17.7813C12.9946 17.9694 13.9748 17.8729 14.8656 17.5039C15.7564 17.135 16.5177 16.5101 17.0534 15.7084C17.5891 14.9067 17.875 13.9642 17.875 13C17.875 11.7071 17.3614 10.4671 16.4471 9.55289C15.5329 8.63858 14.2929 8.125 13 8.125Z" fill="white"/>
</svg>
