<svg width="44" height="41" viewBox="0 0 44 41" fill="none" xmlns="http://www.w3.org/2000/svg">
<path d="M43.1691 0.56363C42.4186 -0.0882721 41.2397 -0.181547 40.0208 0.31968H40.0188C38.7369 0.846531 3.73152 16.2257 2.30649 16.854C2.0473 16.9463 -0.216349 17.8114 0.0168211 19.7384C0.224972 21.4757 2.0443 22.1953 2.26646 22.2783L11.1659 25.3995C11.7563 27.4126 13.9329 34.8397 14.4143 36.4264C14.7145 37.4156 15.2038 38.7153 16.0614 38.9828C16.814 39.28 17.5625 39.0084 18.0469 38.6189L23.4878 33.4498L32.2712 40.466L32.4804 40.5941C33.0768 40.8647 33.6482 41 34.1936 41C34.6149 41 35.0192 40.919 35.4055 40.7571C36.7214 40.2036 37.2478 38.9192 37.3029 38.7737L43.8636 3.84467C44.2639 1.97916 43.7075 1.03001 43.1691 0.56363ZM19.0146 26.6479L16.0124 34.8479L13.0102 24.5979L36.0269 7.17285L19.0146 26.6479Z" fill="#F2323D"/>
</svg>
