<svg width="28" height="26" viewBox="0 0 28 26" fill="none" xmlns="http://www.w3.org/2000/svg">
<path d="M27.5494 3.13144C26.5315 3.65673 25.452 4.00172 24.3467 4.15499C25.5117 3.3421 26.3837 2.06278 26.8001 0.555437C25.7067 1.31454 24.5081 1.84654 23.2587 2.13432C22.4195 1.08677 21.3072 0.392045 20.0947 0.158119C18.8821 -0.0758037 17.6373 0.164195 16.5538 0.840803C15.4702 1.51741 14.6086 2.59272 14.1029 3.89956C13.5972 5.20639 13.4757 6.67154 13.7574 8.06721C11.5402 7.93757 9.37118 7.26536 7.39112 6.09425C5.41106 4.92313 3.66424 3.27929 2.26407 1.26944C1.76846 2.26257 1.50801 3.39156 1.5094 4.54077C1.5094 6.79632 2.4934 8.78899 3.9894 9.95566C3.10408 9.92314 2.23825 9.6442 1.46407 9.1421V9.22299C1.46434 10.7252 1.9099 12.1811 2.7252 13.3438C3.54051 14.5064 4.67538 15.3044 5.9374 15.6024C5.11556 15.8622 4.25381 15.9004 3.4174 15.7144C3.77323 17.0074 4.46675 18.1382 5.40086 18.9485C6.33497 19.7588 7.46291 20.208 8.62674 20.2332C7.47004 21.293 6.14564 22.0765 4.72924 22.5388C3.31285 23.0011 1.83224 23.1332 0.37207 22.9274C2.921 24.8399 5.8882 25.8551 8.91874 25.8519C19.1761 25.8519 24.7854 15.9384 24.7854 7.34077C24.7854 7.06077 24.7787 6.77766 24.7681 6.50077C25.8599 5.58014 26.8022 4.43969 27.5507 3.13299L27.5494 3.13144Z" fill="#F2323D"/>
</svg>
