<svg width="22" height="28" viewBox="0 0 22 28" fill="none" xmlns="http://www.w3.org/2000/svg">
<path d="M0.648178 27.7143H1.22329L11.3689 12.7023C11.5016 12.4369 11.4279 12.3041 11.1477 12.3041H6.95969L11.3689 4.26728C11.5016 4.00184 11.3984 3.86912 11.074 3.86912H5.45554C5.29333 3.86912 5.16061 3.9576 5.02789 4.13456L0.928351 15.047C0.898858 15.3124 0.987336 15.4452 1.20854 15.4452H5.26383L0.648178 27.7143ZM13.1827 18.3797H13.5809L21.2786 7.06912C21.3523 6.95116 21.3671 6.84793 21.3376 6.77419C21.3081 6.70046 21.2196 6.67097 21.0869 6.67097H17.9901L21.2049 0.728113C21.3818 0.433178 21.2933 0.285713 20.9394 0.285713H16.8989C16.7072 0.285713 16.5597 0.374193 16.4565 0.565898L13.3892 8.647C13.345 8.77971 13.345 8.88295 13.404 8.95668C13.463 9.03042 13.5515 9.0599 13.6842 9.0599H16.6925L13.1829 18.3797L13.1827 18.3797Z" fill="#F2323D"/>
</svg>
